<?xml version="1.0" standalone="no"?>
<!DOCTYPE svg PUBLIC "-//W3C//DTD SVG 20010904//EN"
 "http://www.w3.org/TR/2001/REC-SVG-20010904/DTD/svg10.dtd">
<svg version="1.0" xmlns="http://www.w3.org/2000/svg"
 width="900.000000pt" height="900.000000pt" viewBox="0 0 900.000000 900.000000"
 preserveAspectRatio="xMidYMid meet">

<g transform="translate(0.000000,900.000000) scale(0.100000,-0.100000)"
fill="#000000" stroke="none">
<path d="M1005 8261 c-48 -22 -69 -44 -90 -94 -13 -32 -15 -332 -15 -2765 0
-2974 -3 -2800 56 -2977 147 -445 536 -837 1080 -1091 486 -227 1057 -355
1854 -416 212 -16 978 -16 1209 0 1094 76 1897 328 2409 756 254 212 447 481
536 748 60 182 56 -13 56 2977 l0 2737 -22 44 c-67 132 -249 132 -315 0 l-23
-44 0 -1215 0 -1215 -54 87 c-406 645 -1078 1084 -1964 1281 -580 129 -1273
160 -1936 85 -1136 -127 -1991 -600 -2472 -1366 l-54 -86 0 1214 c0 1157 -1
1216 -19 1254 -22 48 -44 69 -94 90 -48 20 -93 19 -142 -4z m5125 -3338 c278
-69 488 -185 673 -371 195 -195 319 -428 374 -700 25 -121 24 -394 -1 -511
-61 -284 -185 -510 -390 -709 -194 -188 -396 -294 -681 -359 -75 -17 -170 -18
-1600 -18 -1406 0 -1526 1 -1605 17 -130 27 -245 67 -358 124 -371 189 -628
526 -718 945 -26 117 -26 400 -1 517 74 346 267 643 548 844 166 119 408 215
599 237 41 5 750 8 1575 7 1489 -2 1501 -2 1585 -23z"/>
<path d="M3100 3945 c-82 -18 -208 -81 -282 -139 -55 -44 -209 -225 -202 -237
11 -20 277 -219 284 -212 4 4 32 40 63 80 106 135 206 183 317 153 89 -23 146
-74 266 -239 3 -3 242 177 273 205 12 11 5 25 -44 89 -153 200 -321 299 -523
310 -57 3 -110 0 -152 -10z"/>
<path d="M5620 3944 c-81 -17 -207 -79 -283 -139 -53 -42 -188 -201 -195 -230
-4 -16 268 -229 278 -218 4 4 32 40 63 80 83 105 148 149 236 160 116 14 202
-47 347 -246 2 -2 60 41 131 95 70 55 134 104 142 110 13 10 7 22 -37 80 -140
182 -270 273 -444 309 -84 18 -152 18 -238 -1z"/>
</g>
</svg>
